<svg width="662" height="529" viewBox="0 0 662 529" fill="none" xmlns="http://www.w3.org/2000/svg">
<g opacity="0.3" filter="url(#filter0_f)">
<path d="M370.533 4.35156L176.709 109.318C180.023 115.023 182.158 121.335 182.988 127.88C183.818 134.425 183.325 141.07 181.539 147.421C179.753 153.773 176.71 159.701 172.591 164.855C168.471 170.008 163.359 174.283 157.556 177.425C151.754 180.568 145.38 182.513 138.812 183.148C132.244 183.782 125.615 183.091 119.319 181.117C113.023 179.143 107.187 175.925 102.157 171.655C97.127 167.384 93.0058 162.148 90.0373 156.255L23.9487 192.046L195.138 508.035L541.723 320.34L370.533 4.35156Z" fill="#F2F2F2"/>
<path opacity="0.2" d="M173.884 281.131L138.297 271.626L128.791 307.206L164.377 316.711L173.884 281.131Z" fill="#00308F"/>
<path d="M223.495 424.309C195.049 467.924 202.843 523.396 202.843 523.396C202.843 523.396 256.758 508.155 285.204 464.54C313.649 420.925 305.855 365.453 305.855 365.453C305.855 365.453 251.941 380.694 223.495 424.309Z" fill="#3F3D56"/>
<path d="M202.692 522.889C202.692 522.889 202 522.779 200.725 522.521C199.709 522.315 198.309 522.02 196.6 521.615C181.321 518.013 140.7 505.838 114.143 473.828C80.9032 433.745 82.3029 377.745 82.3029 377.745C82.3029 377.745 133.127 386.001 166.617 421.997C168.068 423.543 169.48 425.147 170.853 426.806C199.775 461.682 202.471 508.607 202.685 520.208C202.715 521.946 202.692 522.889 202.692 522.889Z" fill="#3D6ECF"/>
<path d="M182.192 424.309C210.638 467.924 202.843 523.396 202.843 523.396C202.843 523.396 148.929 508.155 120.483 464.54C92.0375 420.925 99.8318 365.453 99.8318 365.453C99.8318 365.453 153.746 380.694 182.192 424.309Z" stroke="#3F3D56" stroke-width="2" stroke-miterlimit="10"/>
<path opacity="0.1" d="M202.685 520.208C201.933 521.114 201.27 521.887 200.725 522.521C199.517 523.898 198.832 524.62 198.832 524.62C198.832 524.62 197.999 523.574 196.6 521.615C188.916 510.905 164.2 472.826 166.108 428.839C166.211 426.534 166.381 424.253 166.616 421.997C168.068 423.543 169.48 425.147 170.852 426.806C199.775 461.682 202.471 508.607 202.685 520.208Z" fill="black"/>
<path d="M244.862 432.02C242.614 484.04 203.991 524.62 203.991 524.62C203.991 524.62 169.014 480.86 171.262 428.84C173.511 376.82 212.133 336.24 212.133 336.24C212.133 336.24 247.111 380 244.862 432.02Z" fill="#3D6ECF"/>
<path d="M28.6475 449.039C31.3065 449.039 33.4621 446.884 33.4621 444.225C33.4621 441.567 31.3065 439.411 28.6475 439.411C25.9885 439.411 23.833 441.567 23.833 444.225C23.833 446.884 25.9885 449.039 28.6475 449.039Z" fill="#FF6584"/>
<path d="M124.081 523.235H325.196" stroke="#3F3D56" stroke-width="2" stroke-miterlimit="10"/>
<path d="M4 523.235H99.0327" stroke="#3F3D56" stroke-width="2" stroke-miterlimit="10"/>
<path d="M52.2358 524.12V469.313" stroke="#3F3D56" stroke-width="2" stroke-miterlimit="10"/>
<path d="M52.2354 477.063C56.5168 477.063 59.9875 473.593 59.9875 469.313C59.9875 465.032 56.5168 461.562 52.2354 461.562C47.9541 461.562 44.4834 465.032 44.4834 469.313C44.4834 473.593 47.9541 477.063 52.2354 477.063Z" fill="#3F3D56"/>
<path d="M52.2351 503.092C52.2351 503.092 51.1277 479.278 28.4253 482.046L52.2351 503.092Z" fill="#3F3D56"/>
<path d="M207.877 324.129C216.132 324.129 222.824 317.438 222.824 309.185C222.824 300.932 216.132 294.241 207.877 294.241C199.623 294.241 192.931 300.932 192.931 309.185C192.931 317.438 199.623 324.129 207.877 324.129Z" fill="#3F3D56"/>
<path d="M161.001 320.053C167.005 320.053 171.871 315.187 171.871 309.185C171.871 303.183 167.005 298.317 161.001 298.317C154.998 298.317 150.131 303.183 150.131 309.185C150.131 315.187 154.998 320.053 161.001 320.053Z" stroke="#3F3D56" stroke-width="2" stroke-miterlimit="10"/>
<path d="M254.755 320.053C260.759 320.053 265.625 315.187 265.625 309.185C265.625 303.183 260.759 298.317 254.755 298.317C248.752 298.317 243.885 303.183 243.885 309.185C243.885 315.187 248.752 320.053 254.755 320.053Z" stroke="#3F3D56" stroke-width="2" stroke-miterlimit="10"/>
<path d="M203.991 523.147L212.482 338.362" stroke="#3F3D56" stroke-width="2" stroke-miterlimit="10"/>
<path d="M491.24 346.267C510.798 346.267 526.653 330.953 526.653 312.063C526.653 293.172 510.798 277.858 491.24 277.858C471.682 277.858 455.827 293.172 455.827 312.063C455.827 330.953 471.682 346.267 491.24 346.267Z" fill="#3F3D56"/>
<path d="M244.811 84.6827C250.815 84.6827 255.682 79.8168 255.682 73.8145C255.682 67.8122 250.815 62.9463 244.811 62.9463C238.808 62.9463 233.941 67.8122 233.941 73.8145C233.941 79.8168 238.808 84.6827 244.811 84.6827Z" stroke="#3F3D56" stroke-width="2" stroke-miterlimit="10"/>
<path d="M131.127 174.08C153.225 174.08 171.14 156.169 171.14 134.074C171.14 111.98 153.225 94.0685 131.127 94.0685C109.028 94.0685 91.1133 111.98 91.1133 134.074C91.1133 156.169 109.028 174.08 131.127 174.08Z" fill="#4D88FF"/>
<path d="M581.32 492.245C603.418 492.245 621.333 474.334 621.333 452.239C621.333 430.145 603.418 412.233 581.32 412.233C559.221 412.233 541.306 430.145 541.306 452.239C541.306 474.334 559.221 492.245 581.32 492.245Z" fill="#4D88FF"/>
<path d="M369.029 523.56H657.811" stroke="#3F3D56" stroke-width="2" stroke-miterlimit="10"/>
</g>
<defs>
<filter id="filter0_f" x="0" y="0.351562" width="661.811" height="528.319" filterUnits="userSpaceOnUse" color-interpolation-filters="sRGB">
<feFlood flood-opacity="0" result="BackgroundImageFix"/>
<feBlend mode="normal" in="SourceGraphic" in2="BackgroundImageFix" result="shape"/>
<feGaussianBlur stdDeviation="2" result="effect1_foregroundBlur"/>
</filter>
</defs>
</svg>
