<svg width="720" height="280" viewBox="0 0 720 280" fill="none" xmlns="http://www.w3.org/2000/svg">
<path d="M26.4678 45H18.3672V21.6416H11.0459V15.0176H33.7686V21.6416H26.4678V45ZM59.7725 33.3311C59.7725 37.1318 58.7471 40.0986 56.6963 42.2314C54.6592 44.3506 51.8018 45.4102 48.124 45.4102C44.5967 45.4102 41.7871 44.3232 39.6953 42.1494C37.6172 39.9756 36.5781 37.0361 36.5781 33.3311C36.5781 29.5439 37.5967 26.6045 39.6338 24.5127C41.6846 22.4072 44.5557 21.3545 48.2471 21.3545C50.5303 21.3545 52.5469 21.8398 54.2969 22.8105C56.0469 23.7812 57.3936 25.1758 58.3369 26.9941C59.2939 28.7988 59.7725 30.9111 59.7725 33.3311ZM44.7197 33.3311C44.7197 35.3271 44.9863 36.8516 45.5195 37.9043C46.0527 38.9434 46.9482 39.4629 48.2061 39.4629C49.4502 39.4629 50.3252 38.9434 50.8311 37.9043C51.3506 36.8516 51.6104 35.3271 51.6104 33.3311C51.6104 31.3486 51.3506 29.8516 50.8311 28.8398C50.3115 27.8281 49.4229 27.3223 48.165 27.3223C46.9346 27.3223 46.0527 27.8281 45.5195 28.8398C44.9863 29.8379 44.7197 31.335 44.7197 33.3311ZM71.585 45.4102C69.9307 45.4102 68.4814 44.9385 67.2373 43.9951C66.0068 43.0518 65.0498 41.6641 64.3662 39.832C63.6963 38 63.3613 35.8604 63.3613 33.4131C63.3613 29.6396 64.1201 26.6865 65.6377 24.5537C67.1553 22.4209 69.2402 21.3545 71.8926 21.3545C73.1914 21.3545 74.3262 21.6143 75.2969 22.1338C76.2812 22.6533 77.1768 23.5283 77.9834 24.7588H78.1475C77.8877 22.9404 77.7578 21.1221 77.7578 19.3037V13.0898H85.8379V45H79.7881L78.0654 42.0674H77.7578C76.377 44.2959 74.3193 45.4102 71.585 45.4102ZM74.8662 39.0732C76.1514 39.0732 77.0537 38.6699 77.5732 37.8633C78.1064 37.0566 78.3936 35.8125 78.4346 34.1309V33.4951C78.4346 31.4443 78.1406 29.9883 77.5527 29.127C76.9648 28.252 76.042 27.8145 74.7842 27.8145C73.7314 27.8145 72.9111 28.3135 72.3232 29.3115C71.749 30.2959 71.4619 31.7041 71.4619 33.5361C71.4619 35.3408 71.7559 36.7148 72.3438 37.6582C72.9316 38.6016 73.7725 39.0732 74.8662 39.0732ZM106.551 45L105.013 41.9238H104.849C103.769 43.2637 102.668 44.1797 101.547 44.6719C100.426 45.1641 98.9766 45.4102 97.1992 45.4102C95.0117 45.4102 93.2891 44.7539 92.0312 43.4414C90.7734 42.1289 90.1445 40.2832 90.1445 37.9043C90.1445 35.4297 91.0059 33.5908 92.7285 32.3877C94.4512 31.1709 96.9463 30.4873 100.214 30.3369L104.09 30.2139V29.8857C104.09 27.9717 103.146 27.0146 101.26 27.0146C99.5645 27.0146 97.4111 27.5889 94.7998 28.7373L92.4824 23.4463C95.1895 22.0518 98.6074 21.3545 102.736 21.3545C105.717 21.3545 108.021 22.0928 109.647 23.5693C111.288 25.0459 112.108 27.1104 112.108 29.7627V45H106.551ZM100.604 39.75C101.574 39.75 102.401 39.4424 103.085 38.8271C103.782 38.2119 104.131 37.4121 104.131 36.4277V34.623L102.285 34.7051C99.6465 34.8008 98.3271 35.7715 98.3271 37.6172C98.3271 39.0391 99.0859 39.75 100.604 39.75ZM114.754 21.7646H123.203L127.141 35.0947C127.332 35.792 127.462 36.6328 127.53 37.6172H127.694C127.804 36.6738 127.968 35.8467 128.187 35.1357L132.227 21.7646H140.409L131.222 46.4766C130.046 49.6211 128.597 51.8428 126.874 53.1416C125.165 54.4404 122.93 55.0898 120.168 55.0898C119.102 55.0898 118.008 54.9736 116.887 54.7412V48.4453C117.611 48.6094 118.438 48.6914 119.368 48.6914C120.079 48.6914 120.701 48.5547 121.234 48.2812C121.768 48.0078 122.232 47.6182 122.629 47.1123C123.025 46.6201 123.449 45.8066 123.9 44.6719L114.754 21.7646Z" fill="#00308F"/>
<rect x="44" y="113" width="632" height="167" rx="4" fill="url(#paint0_linear)" fill-opacity="0.15"/>
<rect x="31" y="98" width="656" height="171" rx="4" fill="url(#paint1_linear)" fill-opacity="0.25"/>
<rect x="22" y="83" width="680" height="175" rx="4" fill="url(#paint2_linear)" fill-opacity="0.45"/>
<path d="M36.2393 142.461H35.0908L33.0742 135.769C32.9785 135.473 32.8714 135.099 32.7529 134.648C32.6344 134.197 32.5729 133.925 32.5684 133.834C32.4681 134.436 32.3086 135.094 32.0898 135.81L30.1348 142.461H28.9863L26.3271 132.467H27.5576L29.1367 138.64C29.3555 139.506 29.515 140.29 29.6152 140.991C29.7383 140.157 29.9206 139.342 30.1621 138.544L31.9531 132.467H33.1836L35.0635 138.599C35.2822 139.305 35.4668 140.103 35.6172 140.991C35.7038 140.344 35.8678 139.556 36.1094 138.626L37.6816 132.467H38.9121L36.2393 142.461ZM43.4717 142.598C42.3643 142.598 41.4893 142.261 40.8467 141.586C40.2087 140.912 39.8896 139.975 39.8896 138.777C39.8896 137.569 40.1859 136.61 40.7783 135.899C41.3753 135.188 42.1751 134.832 43.1777 134.832C44.1165 134.832 44.8594 135.142 45.4062 135.762C45.9531 136.377 46.2266 137.191 46.2266 138.202V138.92H41.0654C41.0882 139.8 41.3092 140.467 41.7285 140.923C42.1523 141.379 42.7471 141.607 43.5127 141.607C44.3193 141.607 45.1169 141.438 45.9053 141.101V142.113C45.5042 142.286 45.1237 142.409 44.7637 142.482C44.4082 142.559 43.9775 142.598 43.4717 142.598ZM43.1641 135.782C42.5625 135.782 42.0817 135.978 41.7217 136.37C41.3662 136.762 41.1566 137.305 41.0928 137.997H45.0098C45.0098 137.282 44.8503 136.735 44.5312 136.357C44.2122 135.974 43.7565 135.782 43.1641 135.782ZM49.3027 142.461H48.168V131.824H49.3027V142.461ZM54.7031 142.598C53.6185 142.598 52.7777 142.265 52.1807 141.6C51.5882 140.93 51.292 139.984 51.292 138.763C51.292 137.51 51.5928 136.541 52.1943 135.858C52.8005 135.174 53.6618 134.832 54.7783 134.832C55.1383 134.832 55.4984 134.871 55.8584 134.948C56.2184 135.026 56.501 135.117 56.7061 135.222L56.3574 136.186C56.1068 136.086 55.8333 136.003 55.5371 135.94C55.2409 135.871 54.9788 135.837 54.751 135.837C53.2288 135.837 52.4678 136.808 52.4678 138.749C52.4678 139.67 52.6523 140.376 53.0215 140.868C53.3952 141.361 53.9466 141.607 54.6758 141.607C55.3001 141.607 55.9404 141.472 56.5967 141.203V142.208C56.0954 142.468 55.4642 142.598 54.7031 142.598ZM64.8477 138.708C64.8477 139.93 64.54 140.884 63.9248 141.573C63.3096 142.256 62.4596 142.598 61.375 142.598C60.7051 142.598 60.1104 142.441 59.5908 142.126C59.0713 141.812 58.6702 141.361 58.3877 140.773C58.1051 140.185 57.9639 139.497 57.9639 138.708C57.9639 137.487 58.2692 136.537 58.8799 135.858C59.4906 135.174 60.3382 134.832 61.4229 134.832C62.471 134.832 63.3027 135.181 63.918 135.878C64.5378 136.575 64.8477 137.519 64.8477 138.708ZM59.1396 138.708C59.1396 139.665 59.3311 140.394 59.7139 140.896C60.0967 141.397 60.6595 141.648 61.4023 141.648C62.1452 141.648 62.708 141.399 63.0908 140.903C63.4782 140.401 63.6719 139.67 63.6719 138.708C63.6719 137.756 63.4782 137.033 63.0908 136.541C62.708 136.045 62.1406 135.796 61.3887 135.796C60.6458 135.796 60.0853 136.04 59.707 136.528C59.3288 137.015 59.1396 137.742 59.1396 138.708ZM76.3936 142.461V137.587C76.3936 136.99 76.266 136.544 76.0107 136.247C75.7555 135.947 75.359 135.796 74.8213 135.796C74.1149 135.796 73.5931 135.999 73.2559 136.405C72.9186 136.81 72.75 137.434 72.75 138.278V142.461H71.6152V137.587C71.6152 136.99 71.4876 136.544 71.2324 136.247C70.9772 135.947 70.5785 135.796 70.0361 135.796C69.3252 135.796 68.8034 136.01 68.4707 136.439C68.1426 136.863 67.9785 137.56 67.9785 138.531V142.461H66.8438V134.969H67.7666L67.9512 135.994H68.0059C68.2201 135.63 68.5208 135.345 68.9082 135.14C69.3001 134.935 69.7376 134.832 70.2207 134.832C71.3919 134.832 72.1576 135.256 72.5176 136.104H72.5723C72.7956 135.712 73.1191 135.402 73.543 135.174C73.9668 134.946 74.4499 134.832 74.9922 134.832C75.8398 134.832 76.4733 135.051 76.8926 135.489C77.3164 135.921 77.5283 136.616 77.5283 137.573V142.461H76.3936ZM83.0381 142.598C81.9307 142.598 81.0557 142.261 80.4131 141.586C79.7751 140.912 79.4561 139.975 79.4561 138.777C79.4561 137.569 79.7523 136.61 80.3447 135.899C80.9417 135.188 81.7415 134.832 82.7441 134.832C83.6829 134.832 84.4258 135.142 84.9727 135.762C85.5195 136.377 85.793 137.191 85.793 138.202V138.92H80.6318C80.6546 139.8 80.8757 140.467 81.2949 140.923C81.7188 141.379 82.3135 141.607 83.0791 141.607C83.8857 141.607 84.6833 141.438 85.4717 141.101V142.113C85.0706 142.286 84.6901 142.409 84.3301 142.482C83.9746 142.559 83.5439 142.598 83.0381 142.598ZM82.7305 135.782C82.1289 135.782 81.6481 135.978 81.2881 136.37C80.9326 136.762 80.723 137.305 80.6592 137.997H84.5762C84.5762 137.282 84.4167 136.735 84.0977 136.357C83.7786 135.974 83.3229 135.782 82.7305 135.782ZM93.791 141.661C93.9915 141.661 94.1852 141.648 94.3721 141.62C94.5589 141.588 94.707 141.557 94.8164 141.525V142.393C94.6934 142.452 94.5111 142.5 94.2695 142.536C94.0326 142.577 93.8184 142.598 93.627 142.598C92.1777 142.598 91.4531 141.835 91.4531 140.308V135.851H90.3799V135.304L91.4531 134.832L91.9316 133.233H92.5879V134.969H94.7617V135.851H92.5879V140.26C92.5879 140.711 92.695 141.058 92.9092 141.299C93.1234 141.541 93.4173 141.661 93.791 141.661ZM102.787 138.708C102.787 139.93 102.479 140.884 101.864 141.573C101.249 142.256 100.399 142.598 99.3145 142.598C98.6445 142.598 98.0498 142.441 97.5303 142.126C97.0107 141.812 96.6097 141.361 96.3271 140.773C96.0446 140.185 95.9033 139.497 95.9033 138.708C95.9033 137.487 96.2087 136.537 96.8193 135.858C97.43 135.174 98.2777 134.832 99.3623 134.832C100.41 134.832 101.242 135.181 101.857 135.878C102.477 136.575 102.787 137.519 102.787 138.708ZM97.0791 138.708C97.0791 139.665 97.2705 140.394 97.6533 140.896C98.0361 141.397 98.599 141.648 99.3418 141.648C100.085 141.648 100.647 141.399 101.03 140.903C101.418 140.401 101.611 139.67 101.611 138.708C101.611 137.756 101.418 137.033 101.03 136.541C100.647 136.045 100.08 135.796 99.3281 135.796C98.5853 135.796 98.0247 136.04 97.6465 136.528C97.2682 137.015 97.0791 137.742 97.0791 138.708ZM114.873 142.461L113.629 139.282H109.623L108.393 142.461H107.217L111.168 132.426H112.146L116.076 142.461H114.873ZM113.267 138.237L112.104 135.14C111.954 134.748 111.799 134.267 111.64 133.698C111.539 134.135 111.396 134.616 111.209 135.14L110.033 138.237H113.267ZM120.766 134.846C121.75 134.846 122.513 135.183 123.056 135.858C123.603 136.528 123.876 137.478 123.876 138.708C123.876 139.939 123.6 140.896 123.049 141.579C122.502 142.258 121.741 142.598 120.766 142.598C120.278 142.598 119.831 142.509 119.426 142.331C119.025 142.149 118.688 141.871 118.414 141.497H118.332L118.093 142.461H117.279V131.824H118.414V134.408C118.414 134.987 118.396 135.507 118.359 135.967H118.414C118.943 135.22 119.727 134.846 120.766 134.846ZM120.602 135.796C119.827 135.796 119.269 136.019 118.927 136.466C118.585 136.908 118.414 137.656 118.414 138.708C118.414 139.761 118.59 140.515 118.94 140.971C119.291 141.422 119.854 141.648 120.629 141.648C121.326 141.648 121.846 141.395 122.188 140.889C122.529 140.378 122.7 139.647 122.7 138.695C122.7 137.719 122.529 136.992 122.188 136.514C121.846 136.035 121.317 135.796 120.602 135.796ZM127 142.461H125.865V134.969H127V142.461ZM125.77 132.939C125.77 132.679 125.833 132.49 125.961 132.371C126.089 132.248 126.248 132.187 126.439 132.187C126.622 132.187 126.779 132.248 126.911 132.371C127.043 132.494 127.109 132.684 127.109 132.939C127.109 133.194 127.043 133.385 126.911 133.513C126.779 133.636 126.622 133.698 126.439 133.698C126.248 133.698 126.089 133.636 125.961 133.513C125.833 133.385 125.77 133.194 125.77 132.939ZM130.541 142.461H129.406V131.824H130.541V142.461ZM134.082 142.461H132.947V134.969H134.082V142.461ZM132.852 132.939C132.852 132.679 132.915 132.49 133.043 132.371C133.171 132.248 133.33 132.187 133.521 132.187C133.704 132.187 133.861 132.248 133.993 132.371C134.125 132.494 134.191 132.684 134.191 132.939C134.191 133.194 134.125 133.385 133.993 133.513C133.861 133.636 133.704 133.698 133.521 133.698C133.33 133.698 133.171 133.636 133.043 133.513C132.915 133.385 132.852 133.194 132.852 132.939ZM138.908 141.661C139.109 141.661 139.302 141.648 139.489 141.62C139.676 141.588 139.824 141.557 139.934 141.525V142.393C139.811 142.452 139.628 142.5 139.387 142.536C139.15 142.577 138.936 142.598 138.744 142.598C137.295 142.598 136.57 141.835 136.57 140.308V135.851H135.497V135.304L136.57 134.832L137.049 133.233H137.705V134.969H139.879V135.851H137.705V140.26C137.705 140.711 137.812 141.058 138.026 141.299C138.241 141.541 138.535 141.661 138.908 141.661ZM142.572 142.461H141.438V134.969H142.572V142.461ZM141.342 132.939C141.342 132.679 141.406 132.49 141.533 132.371C141.661 132.248 141.82 132.187 142.012 132.187C142.194 132.187 142.351 132.248 142.483 132.371C142.616 132.494 142.682 132.684 142.682 132.939C142.682 133.194 142.616 133.385 142.483 133.513C142.351 133.636 142.194 133.698 142.012 133.698C141.82 133.698 141.661 133.636 141.533 133.513C141.406 133.385 141.342 133.194 141.342 132.939ZM149.429 133.363C148.33 133.363 147.462 133.729 146.824 134.463C146.191 135.192 145.874 136.193 145.874 137.464C145.874 138.772 146.179 139.784 146.79 140.499C147.405 141.21 148.28 141.566 149.415 141.566C150.112 141.566 150.908 141.44 151.801 141.19V142.208C151.108 142.468 150.254 142.598 149.237 142.598C147.765 142.598 146.628 142.151 145.826 141.258C145.029 140.365 144.63 139.096 144.63 137.45C144.63 136.42 144.821 135.518 145.204 134.743C145.591 133.969 146.147 133.372 146.872 132.952C147.601 132.533 148.458 132.323 149.442 132.323C150.491 132.323 151.407 132.515 152.19 132.898L151.698 133.896C150.942 133.54 150.185 133.363 149.429 133.363ZM153.981 132.467H156.805C158.131 132.467 159.09 132.665 159.683 133.062C160.275 133.458 160.571 134.085 160.571 134.942C160.571 135.534 160.405 136.024 160.072 136.411C159.744 136.794 159.263 137.043 158.63 137.156V137.225C160.147 137.485 160.906 138.282 160.906 139.617C160.906 140.511 160.603 141.208 159.997 141.709C159.396 142.211 158.552 142.461 157.468 142.461H153.981V132.467ZM155.144 136.746H157.058C157.878 136.746 158.468 136.619 158.828 136.364C159.188 136.104 159.368 135.669 159.368 135.058C159.368 134.497 159.168 134.094 158.767 133.848C158.366 133.597 157.728 133.472 156.853 133.472H155.144V136.746ZM155.144 137.731V141.47H157.229C158.035 141.47 158.641 141.315 159.047 141.005C159.457 140.691 159.662 140.201 159.662 139.535C159.662 138.916 159.452 138.46 159.033 138.168C158.618 137.877 157.985 137.731 157.133 137.731H155.144ZM166.136 142.461H164.974V133.499H161.809V132.467H169.301V133.499H166.136V142.461Z" fill="#F5F8FF"/>
<g filter="url(#filter0_d)">
<rect x="10" y="80" width="704" height="167" rx="4" fill="url(#paint3_linear)"/>
</g>
<path d="M122.645 130L121.402 125.922H115.156L113.914 130H110L116.047 112.797H120.488L126.559 130H122.645ZM120.535 122.875C119.387 119.18 118.738 117.09 118.59 116.605C118.449 116.121 118.348 115.738 118.285 115.457C118.027 116.457 117.289 118.93 116.07 122.875H120.535ZM139.215 130L138.207 125.418L136.848 119.629H136.766L134.375 130H130.531L126.805 116.898H130.367L131.879 122.699C132.121 123.738 132.367 125.172 132.617 127H132.688C132.719 126.406 132.855 125.465 133.098 124.176L133.285 123.18L134.902 116.898H138.84L140.375 123.18C140.406 123.352 140.453 123.605 140.516 123.941C140.586 124.277 140.652 124.637 140.715 125.02C140.777 125.395 140.832 125.766 140.879 126.133C140.934 126.492 140.965 126.781 140.973 127H141.043C141.113 126.438 141.238 125.668 141.418 124.691C141.598 123.707 141.727 123.043 141.805 122.699L143.375 116.898H146.879L143.105 130H139.215ZM154.426 119.195C153.668 119.195 153.074 119.438 152.645 119.922C152.215 120.398 151.969 121.078 151.906 121.961H156.922C156.906 121.078 156.676 120.398 156.23 119.922C155.785 119.438 155.184 119.195 154.426 119.195ZM154.93 130.234C152.82 130.234 151.172 129.652 149.984 128.488C148.797 127.324 148.203 125.676 148.203 123.543C148.203 121.348 148.75 119.652 149.844 118.457C150.945 117.254 152.465 116.652 154.402 116.652C156.254 116.652 157.695 117.18 158.727 118.234C159.758 119.289 160.273 120.746 160.273 122.605V124.34H151.824C151.863 125.355 152.164 126.148 152.727 126.719C153.289 127.289 154.078 127.574 155.094 127.574C155.883 127.574 156.629 127.492 157.332 127.328C158.035 127.164 158.77 126.902 159.535 126.543V129.309C158.91 129.621 158.242 129.852 157.531 130C156.82 130.156 155.953 130.234 154.93 130.234ZM172.32 126.109C172.32 127.453 171.852 128.477 170.914 129.18C169.984 129.883 168.59 130.234 166.73 130.234C165.777 130.234 164.965 130.168 164.293 130.035C163.621 129.91 162.992 129.723 162.406 129.473V126.52C163.07 126.832 163.816 127.094 164.645 127.305C165.48 127.516 166.215 127.621 166.848 127.621C168.145 127.621 168.793 127.246 168.793 126.496C168.793 126.215 168.707 125.988 168.535 125.816C168.363 125.637 168.066 125.438 167.645 125.219C167.223 124.992 166.66 124.73 165.957 124.434C164.949 124.012 164.207 123.621 163.73 123.262C163.262 122.902 162.918 122.492 162.699 122.031C162.488 121.562 162.383 120.988 162.383 120.309C162.383 119.145 162.832 118.246 163.73 117.613C164.637 116.973 165.918 116.652 167.574 116.652C169.152 116.652 170.688 116.996 172.18 117.684L171.102 120.262C170.445 119.98 169.832 119.75 169.262 119.57C168.691 119.391 168.109 119.301 167.516 119.301C166.461 119.301 165.934 119.586 165.934 120.156C165.934 120.477 166.102 120.754 166.438 120.988C166.781 121.223 167.527 121.57 168.676 122.031C169.699 122.445 170.449 122.832 170.926 123.191C171.402 123.551 171.754 123.965 171.98 124.434C172.207 124.902 172.32 125.461 172.32 126.109ZM177.957 123.426C177.957 124.723 178.168 125.703 178.59 126.367C179.02 127.031 179.715 127.363 180.676 127.363C181.629 127.363 182.312 127.035 182.727 126.379C183.148 125.715 183.359 124.73 183.359 123.426C183.359 122.129 183.148 121.156 182.727 120.508C182.305 119.859 181.613 119.535 180.652 119.535C179.699 119.535 179.012 119.859 178.59 120.508C178.168 121.148 177.957 122.121 177.957 123.426ZM187.016 123.426C187.016 125.559 186.453 127.227 185.328 128.43C184.203 129.633 182.637 130.234 180.629 130.234C179.371 130.234 178.262 129.961 177.301 129.414C176.34 128.859 175.602 128.066 175.086 127.035C174.57 126.004 174.312 124.801 174.312 123.426C174.312 121.285 174.871 119.621 175.988 118.434C177.105 117.246 178.676 116.652 180.699 116.652C181.957 116.652 183.066 116.926 184.027 117.473C184.988 118.02 185.727 118.805 186.242 119.828C186.758 120.852 187.016 122.051 187.016 123.426ZM201.699 130H198.125V122.348C198.125 121.402 197.965 120.695 197.645 120.227C197.332 119.75 196.836 119.512 196.156 119.512C195.242 119.512 194.578 119.848 194.164 120.52C193.75 121.191 193.543 122.297 193.543 123.836V130H189.969V116.898H192.699L193.18 118.574H193.379C193.73 117.973 194.238 117.504 194.902 117.168C195.566 116.824 196.328 116.652 197.188 116.652C199.148 116.652 200.477 117.293 201.172 118.574H201.488C201.84 117.965 202.355 117.492 203.035 117.156C203.723 116.82 204.496 116.652 205.355 116.652C206.84 116.652 207.961 117.035 208.719 117.801C209.484 118.559 209.867 119.777 209.867 121.457V130H206.281V122.348C206.281 121.402 206.121 120.695 205.801 120.227C205.488 119.75 204.992 119.512 204.312 119.512C203.438 119.512 202.781 119.824 202.344 120.449C201.914 121.074 201.699 122.066 201.699 123.426V130ZM218.973 119.195C218.215 119.195 217.621 119.438 217.191 119.922C216.762 120.398 216.516 121.078 216.453 121.961H221.469C221.453 121.078 221.223 120.398 220.777 119.922C220.332 119.438 219.73 119.195 218.973 119.195ZM219.477 130.234C217.367 130.234 215.719 129.652 214.531 128.488C213.344 127.324 212.75 125.676 212.75 123.543C212.75 121.348 213.297 119.652 214.391 118.457C215.492 117.254 217.012 116.652 218.949 116.652C220.801 116.652 222.242 117.18 223.273 118.234C224.305 119.289 224.82 120.746 224.82 122.605V124.34H216.371C216.41 125.355 216.711 126.148 217.273 126.719C217.836 127.289 218.625 127.574 219.641 127.574C220.43 127.574 221.176 127.492 221.879 127.328C222.582 127.164 223.316 126.902 224.082 126.543V129.309C223.457 129.621 222.789 129.852 222.078 130C221.367 130.156 220.5 130.234 219.477 130.234ZM232.449 135.039C231.629 135.039 230.914 134.953 230.305 134.781V131.758C230.93 131.914 231.5 131.992 232.016 131.992C232.812 131.992 233.383 131.742 233.727 131.242C234.07 130.75 234.242 129.977 234.242 128.922V112.867H237.875V128.898C237.875 130.898 237.418 132.422 236.504 133.469C235.59 134.516 234.238 135.039 232.449 135.039ZM244.754 123.426C244.754 124.723 244.965 125.703 245.387 126.367C245.816 127.031 246.512 127.363 247.473 127.363C248.426 127.363 249.109 127.035 249.523 126.379C249.945 125.715 250.156 124.73 250.156 123.426C250.156 122.129 249.945 121.156 249.523 120.508C249.102 119.859 248.41 119.535 247.449 119.535C246.496 119.535 245.809 119.859 245.387 120.508C244.965 121.148 244.754 122.121 244.754 123.426ZM253.812 123.426C253.812 125.559 253.25 127.227 252.125 128.43C251 129.633 249.434 130.234 247.426 130.234C246.168 130.234 245.059 129.961 244.098 129.414C243.137 128.859 242.398 128.066 241.883 127.035C241.367 126.004 241.109 124.801 241.109 123.426C241.109 121.285 241.668 119.621 242.785 118.434C243.902 117.246 245.473 116.652 247.496 116.652C248.754 116.652 249.863 116.926 250.824 117.473C251.785 118.02 252.523 118.805 253.039 119.828C253.555 120.852 253.812 122.051 253.812 123.426ZM264.055 116.652C265.602 116.652 266.812 117.258 267.688 118.469C268.562 119.672 269 121.324 269 123.426C269 125.59 268.547 127.266 267.641 128.453C266.742 129.641 265.516 130.234 263.961 130.234C262.422 130.234 261.215 129.676 260.34 128.559H260.094L259.496 130H256.766V111.766H260.34V116.008C260.34 116.547 260.293 117.41 260.199 118.598H260.34C261.176 117.301 262.414 116.652 264.055 116.652ZM262.906 119.512C262.023 119.512 261.379 119.785 260.973 120.332C260.566 120.871 260.355 121.766 260.34 123.016V123.402C260.34 124.809 260.547 125.816 260.961 126.426C261.383 127.035 262.047 127.34 262.953 127.34C263.688 127.34 264.27 127.004 264.699 126.332C265.137 125.652 265.355 124.668 265.355 123.379C265.355 122.09 265.137 121.125 264.699 120.484C264.262 119.836 263.664 119.512 262.906 119.512ZM274.953 124.316H272.094L271.496 112.867H275.551L274.953 124.316ZM271.449 128.324C271.449 127.668 271.625 127.172 271.977 126.836C272.328 126.5 272.84 126.332 273.512 126.332C274.16 126.332 274.66 126.504 275.012 126.848C275.371 127.191 275.551 127.684 275.551 128.324C275.551 128.941 275.371 129.43 275.012 129.789C274.652 130.141 274.152 130.316 273.512 130.316C272.855 130.316 272.348 130.145 271.988 129.801C271.629 129.449 271.449 128.957 271.449 128.324Z" fill="#F5F8FF"/>
<path d="M117.163 164.768C115.956 164.768 115.007 165.195 114.315 166.051C113.624 166.906 113.278 168.087 113.278 169.593C113.278 171.169 113.609 172.361 114.271 173.17C114.939 173.979 115.903 174.383 117.163 174.383C117.708 174.383 118.235 174.33 118.745 174.225C119.255 174.113 119.785 173.973 120.336 173.803V175.604C119.328 175.985 118.186 176.176 116.908 176.176C115.027 176.176 113.583 175.607 112.575 174.471C111.567 173.328 111.063 171.696 111.063 169.575C111.063 168.239 111.307 167.07 111.793 166.068C112.285 165.066 112.994 164.299 113.92 163.766C114.846 163.232 115.933 162.966 117.181 162.966C118.493 162.966 119.706 163.241 120.819 163.792L120.063 165.541C119.63 165.336 119.17 165.157 118.684 165.005C118.203 164.847 117.696 164.768 117.163 164.768ZM131.507 171.122C131.507 172.71 131.1 173.949 130.285 174.84C129.471 175.73 128.337 176.176 126.884 176.176C125.976 176.176 125.173 175.971 124.476 175.561C123.778 175.15 123.242 174.562 122.867 173.794C122.492 173.026 122.305 172.136 122.305 171.122C122.305 169.546 122.709 168.315 123.518 167.431C124.326 166.546 125.466 166.104 126.937 166.104C128.343 166.104 129.456 166.558 130.276 167.466C131.097 168.368 131.507 169.587 131.507 171.122ZM124.432 171.122C124.432 173.366 125.261 174.488 126.919 174.488C128.56 174.488 129.38 173.366 129.38 171.122C129.38 168.901 128.554 167.791 126.901 167.791C126.034 167.791 125.404 168.078 125.012 168.652C124.625 169.227 124.432 170.05 124.432 171.122ZM142.44 176H140.366V170.023C140.366 169.273 140.214 168.714 139.909 168.345C139.61 167.976 139.133 167.791 138.477 167.791C137.604 167.791 136.965 168.049 136.561 168.564C136.156 169.08 135.954 169.944 135.954 171.157V176H133.889V166.279H135.506L135.796 167.554H135.901C136.194 167.091 136.61 166.733 137.149 166.481C137.688 166.229 138.286 166.104 138.942 166.104C141.274 166.104 142.44 167.29 142.44 169.663V176ZM153.523 166.279V167.413L151.862 167.721C152.015 167.926 152.141 168.178 152.24 168.477C152.34 168.775 152.39 169.092 152.39 169.426C152.39 170.428 152.044 171.216 151.353 171.79C150.661 172.364 149.709 172.651 148.496 172.651C148.186 172.651 147.904 172.628 147.652 172.581C147.207 172.856 146.984 173.179 146.984 173.548C146.984 173.771 147.087 173.938 147.292 174.049C147.503 174.16 147.887 174.216 148.443 174.216H150.14C151.212 174.216 152.026 174.444 152.583 174.901C153.14 175.358 153.418 176.018 153.418 176.879C153.418 177.98 152.964 178.83 152.056 179.428C151.147 180.025 149.835 180.324 148.118 180.324C146.794 180.324 145.783 180.09 145.086 179.621C144.389 179.152 144.04 178.484 144.04 177.617C144.04 177.02 144.228 176.516 144.603 176.105C144.983 175.701 145.514 175.42 146.193 175.262C145.918 175.145 145.689 174.957 145.508 174.699C145.332 174.436 145.244 174.16 145.244 173.873C145.244 173.51 145.347 173.202 145.552 172.95C145.757 172.698 146.062 172.449 146.466 172.203C145.962 171.986 145.552 171.635 145.235 171.148C144.925 170.656 144.77 170.082 144.77 169.426C144.77 168.371 145.101 167.554 145.763 166.974C146.431 166.394 147.38 166.104 148.61 166.104C148.886 166.104 149.173 166.124 149.472 166.165C149.776 166.2 150.005 166.238 150.157 166.279H153.523ZM145.886 177.512C145.886 177.957 146.085 178.3 146.483 178.54C146.888 178.78 147.453 178.9 148.18 178.9C149.305 178.9 150.143 178.739 150.693 178.417C151.244 178.095 151.52 177.667 151.52 177.134C151.52 176.712 151.367 176.41 151.062 176.229C150.764 176.053 150.204 175.965 149.384 175.965H147.819C147.228 175.965 146.756 176.103 146.404 176.378C146.059 176.659 145.886 177.037 145.886 177.512ZM146.773 169.426C146.773 170.035 146.929 170.504 147.239 170.832C147.556 171.16 148.007 171.324 148.593 171.324C149.788 171.324 150.386 170.686 150.386 169.408C150.386 168.775 150.236 168.289 149.938 167.949C149.645 167.604 149.196 167.431 148.593 167.431C147.995 167.431 147.541 167.601 147.23 167.94C146.926 168.28 146.773 168.775 146.773 169.426ZM160.265 166.104C160.681 166.104 161.023 166.133 161.293 166.191L161.091 168.116C160.798 168.046 160.493 168.011 160.177 168.011C159.351 168.011 158.68 168.28 158.164 168.819C157.654 169.358 157.399 170.059 157.399 170.92V176H155.334V166.279H156.951L157.224 167.993H157.329C157.651 167.413 158.07 166.953 158.586 166.613C159.107 166.273 159.667 166.104 160.265 166.104ZM169.186 176L168.772 174.646H168.702C168.233 175.238 167.762 175.643 167.287 175.859C166.812 176.07 166.203 176.176 165.459 176.176C164.504 176.176 163.757 175.918 163.218 175.402C162.685 174.887 162.418 174.157 162.418 173.214C162.418 172.212 162.79 171.456 163.534 170.946C164.278 170.437 165.412 170.158 166.936 170.111L168.614 170.059V169.54C168.614 168.919 168.468 168.456 168.175 168.151C167.888 167.841 167.439 167.686 166.83 167.686C166.332 167.686 165.854 167.759 165.397 167.905C164.94 168.052 164.501 168.225 164.079 168.424L163.411 166.947C163.938 166.672 164.516 166.464 165.143 166.323C165.77 166.177 166.361 166.104 166.918 166.104C168.154 166.104 169.086 166.373 169.713 166.912C170.346 167.451 170.662 168.298 170.662 169.452V176H169.186ZM166.109 174.594C166.859 174.594 167.46 174.386 167.911 173.97C168.368 173.548 168.597 172.959 168.597 172.203V171.359L167.349 171.412C166.376 171.447 165.667 171.611 165.222 171.904C164.782 172.191 164.562 172.634 164.562 173.231C164.562 173.665 164.691 174.002 164.949 174.242C165.207 174.477 165.594 174.594 166.109 174.594ZM177.166 174.506C177.67 174.506 178.174 174.427 178.678 174.269V175.824C178.449 175.924 178.153 176.006 177.79 176.07C177.433 176.141 177.061 176.176 176.674 176.176C174.717 176.176 173.738 175.145 173.738 173.082V167.844H172.411V166.93L173.835 166.174L174.538 164.117H175.812V166.279H178.581V167.844H175.812V173.047C175.812 173.545 175.936 173.914 176.182 174.154C176.434 174.389 176.762 174.506 177.166 174.506ZM187.484 176L187.194 174.726H187.089C186.802 175.177 186.392 175.531 185.858 175.789C185.331 176.047 184.728 176.176 184.048 176.176C182.87 176.176 181.991 175.883 181.411 175.297C180.831 174.711 180.541 173.823 180.541 172.634V166.279H182.624V172.273C182.624 173.018 182.776 173.577 183.081 173.952C183.386 174.321 183.863 174.506 184.514 174.506C185.381 174.506 186.017 174.248 186.421 173.732C186.831 173.211 187.036 172.341 187.036 171.122V166.279H189.11V176H187.484ZM194.12 176H192.055V162.324H194.12V176ZM203.164 176L202.751 174.646H202.681C202.212 175.238 201.74 175.643 201.266 175.859C200.791 176.07 200.182 176.176 199.438 176.176C198.482 176.176 197.735 175.918 197.196 175.402C196.663 174.887 196.396 174.157 196.396 173.214C196.396 172.212 196.769 171.456 197.513 170.946C198.257 170.437 199.391 170.158 200.914 170.111L202.593 170.059V169.54C202.593 168.919 202.446 168.456 202.153 168.151C201.866 167.841 201.418 167.686 200.809 167.686C200.311 167.686 199.833 167.759 199.376 167.905C198.919 168.052 198.479 168.225 198.058 168.424L197.39 166.947C197.917 166.672 198.494 166.464 199.121 166.323C199.748 166.177 200.34 166.104 200.896 166.104C202.133 166.104 203.064 166.373 203.691 166.912C204.324 167.451 204.641 168.298 204.641 169.452V176H203.164ZM200.088 174.594C200.838 174.594 201.438 174.386 201.89 173.97C202.347 173.548 202.575 172.959 202.575 172.203V171.359L201.327 171.412C200.354 171.447 199.646 171.611 199.2 171.904C198.761 172.191 198.541 172.634 198.541 173.231C198.541 173.665 198.67 174.002 198.928 174.242C199.186 174.477 199.572 174.594 200.088 174.594ZM211.145 174.506C211.648 174.506 212.152 174.427 212.656 174.269V175.824C212.428 175.924 212.132 176.006 211.769 176.07C211.411 176.141 211.039 176.176 210.652 176.176C208.695 176.176 207.717 175.145 207.717 173.082V167.844H206.39V166.93L207.813 166.174L208.517 164.117H209.791V166.279H212.56V167.844H209.791V173.047C209.791 173.545 209.914 173.914 210.16 174.154C210.412 174.389 210.74 174.506 211.145 174.506ZM216.673 176H214.607V166.279H216.673V176ZM214.484 163.704C214.484 163.335 214.584 163.051 214.783 162.852C214.988 162.652 215.278 162.553 215.653 162.553C216.017 162.553 216.298 162.652 216.497 162.852C216.702 163.051 216.805 163.335 216.805 163.704C216.805 164.056 216.702 164.334 216.497 164.539C216.298 164.738 216.017 164.838 215.653 164.838C215.278 164.838 214.988 164.738 214.783 164.539C214.584 164.334 214.484 164.056 214.484 163.704ZM228.257 171.122C228.257 172.71 227.85 173.949 227.035 174.84C226.221 175.73 225.087 176.176 223.634 176.176C222.726 176.176 221.923 175.971 221.226 175.561C220.528 175.15 219.992 174.562 219.617 173.794C219.242 173.026 219.055 172.136 219.055 171.122C219.055 169.546 219.459 168.315 220.268 167.431C221.076 166.546 222.216 166.104 223.687 166.104C225.093 166.104 226.206 166.558 227.026 167.466C227.847 168.368 228.257 169.587 228.257 171.122ZM221.182 171.122C221.182 173.366 222.011 174.488 223.669 174.488C225.31 174.488 226.13 173.366 226.13 171.122C226.13 168.901 225.304 167.791 223.651 167.791C222.784 167.791 222.154 168.078 221.762 168.652C221.375 169.227 221.182 170.05 221.182 171.122ZM239.19 176H237.116V170.023C237.116 169.273 236.964 168.714 236.659 168.345C236.36 167.976 235.883 167.791 235.227 167.791C234.354 167.791 233.715 168.049 233.311 168.564C232.906 169.08 232.704 169.944 232.704 171.157V176H230.639V166.279H232.256L232.546 167.554H232.651C232.944 167.091 233.36 166.733 233.899 166.481C234.438 166.229 235.036 166.104 235.692 166.104C238.024 166.104 239.19 167.29 239.19 169.663V176ZM248.595 173.231C248.595 174.181 248.249 174.91 247.558 175.42C246.866 175.924 245.876 176.176 244.587 176.176C243.292 176.176 242.252 175.979 241.467 175.587V173.803C242.609 174.33 243.673 174.594 244.657 174.594C245.929 174.594 246.564 174.21 246.564 173.442C246.564 173.196 246.494 172.991 246.354 172.827C246.213 172.663 245.981 172.493 245.659 172.317C245.337 172.142 244.889 171.942 244.314 171.72C243.195 171.286 242.437 170.853 242.038 170.419C241.646 169.985 241.449 169.423 241.449 168.731C241.449 167.899 241.783 167.255 242.451 166.798C243.125 166.335 244.039 166.104 245.193 166.104C246.336 166.104 247.417 166.335 248.437 166.798L247.769 168.354C246.72 167.92 245.838 167.703 245.123 167.703C244.033 167.703 243.488 168.014 243.488 168.635C243.488 168.939 243.629 169.197 243.91 169.408C244.197 169.619 244.818 169.909 245.773 170.278C246.576 170.589 247.159 170.873 247.522 171.131C247.886 171.389 248.155 171.688 248.331 172.027C248.507 172.361 248.595 172.763 248.595 173.231ZM264.134 171.122C264.134 172.71 263.727 173.949 262.912 174.84C262.098 175.73 260.964 176.176 259.511 176.176C258.603 176.176 257.8 175.971 257.103 175.561C256.405 175.15 255.869 174.562 255.494 173.794C255.119 173.026 254.932 172.136 254.932 171.122C254.932 169.546 255.336 168.315 256.145 167.431C256.953 166.546 258.093 166.104 259.563 166.104C260.97 166.104 262.083 166.558 262.903 167.466C263.724 168.368 264.134 169.587 264.134 171.122ZM257.059 171.122C257.059 173.366 257.888 174.488 259.546 174.488C261.187 174.488 262.007 173.366 262.007 171.122C262.007 168.901 261.181 167.791 259.528 167.791C258.661 167.791 258.031 168.078 257.639 168.652C257.252 169.227 257.059 170.05 257.059 171.122ZM275.067 176H272.993V170.023C272.993 169.273 272.841 168.714 272.536 168.345C272.237 167.976 271.76 167.791 271.104 167.791C270.23 167.791 269.592 168.049 269.188 168.564C268.783 169.08 268.581 169.944 268.581 171.157V176H266.516V166.279H268.133L268.423 167.554H268.528C268.821 167.091 269.237 166.733 269.776 166.481C270.315 166.229 270.913 166.104 271.569 166.104C273.901 166.104 275.067 167.29 275.067 169.663V176ZM286.238 174.506C286.742 174.506 287.246 174.427 287.75 174.269V175.824C287.521 175.924 287.226 176.006 286.862 176.07C286.505 176.141 286.133 176.176 285.746 176.176C283.789 176.176 282.811 175.145 282.811 173.082V167.844H281.483V166.93L282.907 166.174L283.61 164.117H284.885V166.279H287.653V167.844H284.885V173.047C284.885 173.545 285.008 173.914 285.254 174.154C285.506 174.389 285.834 174.506 286.238 174.506ZM298.253 176H296.179V170.023C296.179 169.273 296.026 168.714 295.722 168.345C295.423 167.976 294.945 167.791 294.289 167.791C293.422 167.791 292.783 168.052 292.373 168.573C291.969 169.089 291.767 169.956 291.767 171.175V176H289.701V162.324H291.767V165.796C291.767 166.353 291.731 166.947 291.661 167.58H291.793C292.074 167.111 292.464 166.748 292.962 166.49C293.466 166.232 294.052 166.104 294.72 166.104C297.075 166.104 298.253 167.29 298.253 169.663V176ZM305.372 176.176C303.86 176.176 302.677 175.736 301.821 174.857C300.972 173.973 300.547 172.757 300.547 171.21C300.547 169.622 300.942 168.374 301.733 167.466C302.524 166.558 303.611 166.104 304.994 166.104C306.277 166.104 307.291 166.493 308.035 167.272C308.779 168.052 309.151 169.124 309.151 170.489V171.605H302.674C302.703 172.549 302.958 173.275 303.438 173.785C303.919 174.289 304.596 174.541 305.469 174.541C306.043 174.541 306.576 174.488 307.068 174.383C307.566 174.271 308.1 174.09 308.668 173.838V175.517C308.164 175.757 307.654 175.927 307.139 176.026C306.623 176.126 306.034 176.176 305.372 176.176ZM304.994 167.668C304.338 167.668 303.811 167.876 303.412 168.292C303.02 168.708 302.785 169.314 302.709 170.111H307.121C307.109 169.309 306.916 168.702 306.541 168.292C306.166 167.876 305.65 167.668 304.994 167.668ZM320.094 176.176C318.623 176.176 317.504 175.748 316.736 174.893C315.975 174.031 315.594 172.798 315.594 171.192C315.594 169.558 315.992 168.301 316.789 167.422C317.592 166.543 318.749 166.104 320.261 166.104C321.286 166.104 322.209 166.294 323.029 166.675L322.405 168.336C321.532 167.996 320.812 167.826 320.243 167.826C318.562 167.826 317.721 168.942 317.721 171.175C317.721 172.265 317.929 173.085 318.345 173.636C318.767 174.181 319.382 174.453 320.19 174.453C321.11 174.453 321.98 174.225 322.801 173.768V175.569C322.432 175.786 322.036 175.941 321.614 176.035C321.198 176.129 320.691 176.176 320.094 176.176ZM333.708 171.122C333.708 172.71 333.301 173.949 332.486 174.84C331.672 175.73 330.538 176.176 329.085 176.176C328.177 176.176 327.374 175.971 326.677 175.561C325.979 175.15 325.443 174.562 325.068 173.794C324.693 173.026 324.506 172.136 324.506 171.122C324.506 169.546 324.91 168.315 325.719 167.431C326.527 166.546 327.667 166.104 329.138 166.104C330.544 166.104 331.657 166.558 332.478 167.466C333.298 168.368 333.708 169.587 333.708 171.122ZM326.633 171.122C326.633 173.366 327.462 174.488 329.12 174.488C330.761 174.488 331.581 173.366 331.581 171.122C331.581 168.901 330.755 167.791 329.103 167.791C328.235 167.791 327.605 168.078 327.213 168.652C326.826 169.227 326.633 170.05 326.633 171.122ZM344.281 176H342.207V170.006C342.207 169.262 342.066 168.708 341.785 168.345C341.504 167.976 341.064 167.791 340.467 167.791C339.67 167.791 339.084 168.052 338.709 168.573C338.34 169.089 338.155 169.95 338.155 171.157V176H336.09V166.279H337.707L337.997 167.554H338.103C338.372 167.091 338.762 166.733 339.271 166.481C339.787 166.229 340.353 166.104 340.968 166.104C342.462 166.104 343.452 166.613 343.938 167.633H344.079C344.366 167.152 344.771 166.777 345.292 166.508C345.813 166.238 346.411 166.104 347.085 166.104C348.245 166.104 349.089 166.396 349.616 166.982C350.149 167.568 350.416 168.462 350.416 169.663V176H348.351V170.006C348.351 169.262 348.207 168.708 347.92 168.345C347.639 167.976 347.199 167.791 346.602 167.791C345.799 167.791 345.21 168.043 344.835 168.547C344.466 169.045 344.281 169.812 344.281 170.85V176ZM358.229 176.176C356.999 176.176 356.044 175.733 355.364 174.849H355.241C355.323 175.669 355.364 176.167 355.364 176.343V180.324H353.299V166.279H354.969C355.016 166.461 355.112 166.895 355.259 167.58H355.364C356.009 166.596 356.976 166.104 358.265 166.104C359.478 166.104 360.421 166.543 361.095 167.422C361.774 168.301 362.114 169.534 362.114 171.122C362.114 172.71 361.769 173.949 361.077 174.84C360.392 175.73 359.442 176.176 358.229 176.176ZM357.729 167.791C356.908 167.791 356.308 168.031 355.927 168.512C355.552 168.992 355.364 169.76 355.364 170.814V171.122C355.364 172.306 355.552 173.164 355.927 173.697C356.302 174.225 356.914 174.488 357.764 174.488C358.479 174.488 359.029 174.195 359.416 173.609C359.803 173.023 359.996 172.188 359.996 171.104C359.996 170.015 359.803 169.191 359.416 168.635C359.035 168.072 358.473 167.791 357.729 167.791ZM366.579 176H364.514V162.324H366.579V176ZM373.786 176.176C372.274 176.176 371.091 175.736 370.235 174.857C369.386 173.973 368.961 172.757 368.961 171.21C368.961 169.622 369.356 168.374 370.147 167.466C370.938 166.558 372.025 166.104 373.408 166.104C374.691 166.104 375.705 166.493 376.449 167.272C377.193 168.052 377.565 169.124 377.565 170.489V171.605H371.088C371.117 172.549 371.372 173.275 371.853 173.785C372.333 174.289 373.01 174.541 373.883 174.541C374.457 174.541 374.99 174.488 375.482 174.383C375.98 174.271 376.514 174.09 377.082 173.838V175.517C376.578 175.757 376.068 175.927 375.553 176.026C375.037 176.126 374.448 176.176 373.786 176.176ZM373.408 167.668C372.752 167.668 372.225 167.876 371.826 168.292C371.434 168.708 371.199 169.314 371.123 170.111H375.535C375.523 169.309 375.33 168.702 374.955 168.292C374.58 167.876 374.064 167.668 373.408 167.668ZM383.533 174.506C384.037 174.506 384.541 174.427 385.045 174.269V175.824C384.816 175.924 384.521 176.006 384.157 176.07C383.8 176.141 383.428 176.176 383.041 176.176C381.084 176.176 380.105 175.145 380.105 173.082V167.844H378.778V166.93L380.202 166.174L380.905 164.117H382.18V166.279H384.948V167.844H382.18V173.047C382.18 173.545 382.303 173.914 382.549 174.154C382.801 174.389 383.129 174.506 383.533 174.506ZM389.062 176H386.996V166.279H389.062V176ZM386.873 163.704C386.873 163.335 386.973 163.051 387.172 162.852C387.377 162.652 387.667 162.553 388.042 162.553C388.405 162.553 388.687 162.652 388.886 162.852C389.091 163.051 389.193 163.335 389.193 163.704C389.193 164.056 389.091 164.334 388.886 164.539C388.687 164.738 388.405 164.838 388.042 164.838C387.667 164.838 387.377 164.738 387.172 164.539C386.973 164.334 386.873 164.056 386.873 163.704ZM400.646 171.122C400.646 172.71 400.238 173.949 399.424 174.84C398.609 175.73 397.476 176.176 396.022 176.176C395.114 176.176 394.312 175.971 393.614 175.561C392.917 175.15 392.381 174.562 392.006 173.794C391.631 173.026 391.443 172.136 391.443 171.122C391.443 169.546 391.848 168.315 392.656 167.431C393.465 166.546 394.604 166.104 396.075 166.104C397.481 166.104 398.595 166.558 399.415 167.466C400.235 168.368 400.646 169.587 400.646 171.122ZM393.57 171.122C393.57 173.366 394.399 174.488 396.058 174.488C397.698 174.488 398.519 173.366 398.519 171.122C398.519 168.901 397.692 167.791 396.04 167.791C395.173 167.791 394.543 168.078 394.15 168.652C393.764 169.227 393.57 170.05 393.57 171.122ZM411.579 176H409.505V170.023C409.505 169.273 409.353 168.714 409.048 168.345C408.749 167.976 408.271 167.791 407.615 167.791C406.742 167.791 406.104 168.049 405.699 168.564C405.295 169.08 405.093 169.944 405.093 171.157V176H403.027V166.279H404.645L404.935 167.554H405.04C405.333 167.091 405.749 166.733 406.288 166.481C406.827 166.229 407.425 166.104 408.081 166.104C410.413 166.104 411.579 167.29 411.579 169.663V176ZM427.751 171.122C427.751 172.71 427.344 173.949 426.529 174.84C425.715 175.73 424.581 176.176 423.128 176.176C422.22 176.176 421.417 175.971 420.72 175.561C420.022 175.15 419.486 174.562 419.111 173.794C418.736 173.026 418.549 172.136 418.549 171.122C418.549 169.546 418.953 168.315 419.762 167.431C420.57 166.546 421.71 166.104 423.181 166.104C424.587 166.104 425.7 166.558 426.521 167.466C427.341 168.368 427.751 169.587 427.751 171.122ZM420.676 171.122C420.676 173.366 421.505 174.488 423.163 174.488C424.804 174.488 425.624 173.366 425.624 171.122C425.624 168.901 424.798 167.791 423.146 167.791C422.278 167.791 421.648 168.078 421.256 168.652C420.869 169.227 420.676 170.05 420.676 171.122ZM435.011 167.844H432.638V176H430.563V167.844H428.964V166.877L430.563 166.244V165.611C430.563 164.463 430.833 163.613 431.372 163.062C431.911 162.506 432.734 162.228 433.842 162.228C434.568 162.228 435.283 162.348 435.986 162.588L435.441 164.152C434.932 163.988 434.445 163.906 433.982 163.906C433.514 163.906 433.171 164.053 432.954 164.346C432.743 164.633 432.638 165.066 432.638 165.646V166.279H435.011V167.844ZM444.969 174.506C445.473 174.506 445.977 174.427 446.48 174.269V175.824C446.252 175.924 445.956 176.006 445.593 176.07C445.235 176.141 444.863 176.176 444.477 176.176C442.52 176.176 441.541 175.145 441.541 173.082V167.844H440.214V166.93L441.638 166.174L442.341 164.117H443.615V166.279H446.384V167.844H443.615V173.047C443.615 173.545 443.738 173.914 443.984 174.154C444.236 174.389 444.564 174.506 444.969 174.506ZM456.983 176H454.909V170.023C454.909 169.273 454.757 168.714 454.452 168.345C454.153 167.976 453.676 167.791 453.02 167.791C452.152 167.791 451.514 168.052 451.104 168.573C450.699 169.089 450.497 169.956 450.497 171.175V176H448.432V162.324H450.497V165.796C450.497 166.353 450.462 166.947 450.392 167.58H450.523C450.805 167.111 451.194 166.748 451.692 166.49C452.196 166.232 452.782 166.104 453.45 166.104C455.806 166.104 456.983 167.29 456.983 169.663V176ZM464.103 176.176C462.591 176.176 461.407 175.736 460.552 174.857C459.702 173.973 459.277 172.757 459.277 171.21C459.277 169.622 459.673 168.374 460.464 167.466C461.255 166.558 462.342 166.104 463.725 166.104C465.008 166.104 466.021 166.493 466.766 167.272C467.51 168.052 467.882 169.124 467.882 170.489V171.605H461.404C461.434 172.549 461.688 173.275 462.169 173.785C462.649 174.289 463.326 174.541 464.199 174.541C464.773 174.541 465.307 174.488 465.799 174.383C466.297 174.271 466.83 174.09 467.398 173.838V175.517C466.895 175.757 466.385 175.927 465.869 176.026C465.354 176.126 464.765 176.176 464.103 176.176ZM463.725 167.668C463.068 167.668 462.541 167.876 462.143 168.292C461.75 168.708 461.516 169.314 461.439 170.111H465.852C465.84 169.309 465.646 168.702 465.271 168.292C464.896 167.876 464.381 167.668 463.725 167.668ZM483.096 176H481.021V170.006C481.021 169.262 480.881 168.708 480.6 168.345C480.318 167.976 479.879 167.791 479.281 167.791C478.484 167.791 477.898 168.052 477.523 168.573C477.154 169.089 476.97 169.95 476.97 171.157V176H474.904V166.279H476.521L476.812 167.554H476.917C477.187 167.091 477.576 166.733 478.086 166.481C478.602 166.229 479.167 166.104 479.782 166.104C481.276 166.104 482.267 166.613 482.753 167.633H482.894C483.181 167.152 483.585 166.777 484.106 166.508C484.628 166.238 485.226 166.104 485.899 166.104C487.06 166.104 487.903 166.396 488.431 166.982C488.964 167.568 489.23 168.462 489.23 169.663V176H487.165V170.006C487.165 169.262 487.021 168.708 486.734 168.345C486.453 167.976 486.014 167.791 485.416 167.791C484.613 167.791 484.024 168.043 483.649 168.547C483.28 169.045 483.096 169.812 483.096 170.85V176ZM500.735 171.122C500.735 172.71 500.328 173.949 499.514 174.84C498.699 175.73 497.565 176.176 496.112 176.176C495.204 176.176 494.401 175.971 493.704 175.561C493.007 175.15 492.471 174.562 492.096 173.794C491.721 173.026 491.533 172.136 491.533 171.122C491.533 169.546 491.938 168.315 492.746 167.431C493.555 166.546 494.694 166.104 496.165 166.104C497.571 166.104 498.685 166.558 499.505 167.466C500.325 168.368 500.735 169.587 500.735 171.122ZM493.66 171.122C493.66 173.366 494.489 174.488 496.147 174.488C497.788 174.488 498.608 173.366 498.608 171.122C498.608 168.901 497.782 167.791 496.13 167.791C495.263 167.791 494.633 168.078 494.24 168.652C493.854 169.227 493.66 170.05 493.66 171.122ZM506.396 176.176C505.183 176.176 504.236 175.736 503.557 174.857C502.877 173.979 502.537 172.745 502.537 171.157C502.537 169.563 502.88 168.324 503.565 167.439C504.257 166.549 505.212 166.104 506.431 166.104C507.708 166.104 508.681 166.575 509.349 167.519H509.454C509.354 166.821 509.305 166.271 509.305 165.866V162.324H511.379V176H509.762L509.401 174.726H509.305C508.643 175.692 507.673 176.176 506.396 176.176ZM506.949 174.506C507.799 174.506 508.417 174.269 508.804 173.794C509.19 173.313 509.39 172.537 509.401 171.465V171.175C509.401 169.95 509.202 169.08 508.804 168.564C508.405 168.049 507.781 167.791 506.932 167.791C506.205 167.791 505.646 168.087 505.253 168.679C504.86 169.265 504.664 170.103 504.664 171.192C504.664 172.271 504.854 173.094 505.235 173.662C505.616 174.225 506.188 174.506 506.949 174.506ZM521.188 176L520.897 174.726H520.792C520.505 175.177 520.095 175.531 519.562 175.789C519.034 176.047 518.431 176.176 517.751 176.176C516.573 176.176 515.694 175.883 515.114 175.297C514.534 174.711 514.244 173.823 514.244 172.634V166.279H516.327V172.273C516.327 173.018 516.479 173.577 516.784 173.952C517.089 174.321 517.566 174.506 518.217 174.506C519.084 174.506 519.72 174.248 520.124 173.732C520.534 173.211 520.739 172.341 520.739 171.122V166.279H522.813V176H521.188ZM527.823 176H525.758V162.324H527.823V176ZM535.03 176.176C533.519 176.176 532.335 175.736 531.479 174.857C530.63 173.973 530.205 172.757 530.205 171.21C530.205 169.622 530.601 168.374 531.392 167.466C532.183 166.558 533.27 166.104 534.652 166.104C535.936 166.104 536.949 166.493 537.693 167.272C538.438 168.052 538.81 169.124 538.81 170.489V171.605H532.332C532.361 172.549 532.616 173.275 533.097 173.785C533.577 174.289 534.254 174.541 535.127 174.541C535.701 174.541 536.234 174.488 536.727 174.383C537.225 174.271 537.758 174.09 538.326 173.838V175.517C537.822 175.757 537.312 175.927 536.797 176.026C536.281 176.126 535.692 176.176 535.03 176.176ZM534.652 167.668C533.996 167.668 533.469 167.876 533.07 168.292C532.678 168.708 532.443 169.314 532.367 170.111H536.779C536.768 169.309 536.574 168.702 536.199 168.292C535.824 167.876 535.309 167.668 534.652 167.668ZM542.94 172.098H541.411L540.954 163.15H543.389L542.94 172.098ZM540.849 174.901C540.849 174.468 540.963 174.14 541.191 173.917C541.42 173.688 541.745 173.574 542.167 173.574C542.583 173.574 542.902 173.691 543.125 173.926C543.348 174.16 543.459 174.485 543.459 174.901C543.459 175.317 543.345 175.648 543.116 175.895C542.894 176.135 542.577 176.255 542.167 176.255C541.751 176.255 541.426 176.138 541.191 175.903C540.963 175.669 540.849 175.335 540.849 174.901Z" fill="#F5F8FF"/>
<path d="M649.054 238.794L647.632 237.737C647.632 237.737 646.691 242.995 647.741 243.783C648.791 244.571 652.73 245.884 652.73 247.459C652.73 249.035 661.658 251.136 661.921 248.772C662.184 246.409 661.133 245.096 661.133 245.096C661.133 245.096 656.932 240.894 656.407 240.107C655.881 239.319 654.568 237.743 654.568 237.743L649.054 238.794Z" fill="#2F2E41"/>
<path d="M670.061 173.408C670.061 173.408 670.022 173.639 669.954 174.062C669.891 174.437 669.804 174.968 669.699 175.622C668.596 182.352 665.379 202.165 665.597 202.818C665.86 203.606 667.698 206.495 665.597 207.282C665.395 207.359 665.177 207.605 664.944 207.994C664.492 208.831 664.121 209.709 663.833 210.615C662.58 214.249 661.241 220.066 660.466 224.094C660.128 225.864 659.897 227.287 659.828 228.033C659.804 228.205 659.802 228.38 659.82 228.553C660.083 229.603 658.245 233.279 657.457 234.33C656.669 235.38 655.356 236.43 655.619 237.481C655.881 238.531 649.054 241.42 648.266 239.581C647.478 237.743 647.478 236.693 647.216 236.168C646.953 235.643 646.691 231.966 648.004 231.441C649.317 230.916 648.529 221.725 649.842 219.887C650.28 219.275 650.95 217.203 651.651 214.711C651.927 213.734 652.205 212.695 652.478 211.652C653.586 207.38 654.568 203.081 654.568 203.081L654.306 172.358L668.749 170.519L669.119 171.336L669.857 172.956L670.061 173.408Z" fill="#2F2E41"/>
<path d="M670.849 223.826C670.849 223.826 672.95 221.725 674.001 223.826C675.051 225.927 676.101 234.067 677.939 235.905C679.778 237.743 682.141 246.934 679.515 247.459C676.889 247.984 674.001 246.671 673.738 245.096C673.475 243.52 667.961 235.38 667.961 234.592C667.961 233.804 671.637 230.916 671.637 230.916L670.849 223.826Z" fill="#2F2E41"/>
<path d="M638.55 158.965C638.55 158.965 641.964 189.689 642.752 192.577C643.54 195.466 647.741 206.495 649.054 208.333C650.367 210.171 658.77 225.139 659.82 225.927C660.871 226.714 662.971 228.815 662.971 228.815C662.971 228.815 666.91 232.754 667.436 233.542C667.961 234.33 672.425 231.966 672.687 230.391C672.95 228.815 672.425 226.189 672.162 225.139C671.9 224.088 672.687 222.513 671.9 221.725C671.112 220.937 667.173 216.998 667.173 215.16C667.173 213.322 660.346 202.556 657.72 200.192C655.094 197.829 655.619 193.89 655.619 193.89V177.872L670.061 173.408C670.061 173.408 669.274 160.803 667.436 160.803C665.597 160.803 641.439 156.602 638.55 158.965Z" fill="#2F2E41"/>
<path d="M659.82 115.112C664.606 115.112 668.486 111.233 668.486 106.447C668.486 101.661 664.606 97.7811 659.82 97.7811C655.034 97.7811 651.155 101.661 651.155 106.447C651.155 111.233 655.034 115.112 659.82 115.112Z" fill="#E29898"/>
<path d="M656.932 113.274C656.932 113.274 655.882 117.213 654.569 118.263C653.256 119.314 657.983 123.778 657.983 123.778L666.911 124.303L668.486 119.314C668.486 119.314 665.598 113.537 666.385 109.86C667.173 106.184 656.932 113.274 656.932 113.274Z" fill="#E29898"/>
<path d="M653.255 117.738C653.255 117.738 655.619 118.001 656.144 118.789C656.669 119.576 660.346 121.94 663.234 121.414C666.123 120.889 667.961 120.102 668.486 120.364C669.011 120.627 670.061 126.141 670.061 126.141L667.173 134.544L667.698 157.652L668.486 163.955C668.486 163.955 670.061 161.854 663.759 163.167C657.457 164.48 649.317 162.116 646.691 161.854C644.065 161.591 639.601 160.803 639.338 159.228C639.075 157.652 640.126 151.875 640.126 151.875L644.327 134.282L646.953 124.828L653.255 117.738Z" fill="#C02B49"/>
<path d="M655.74 116.553C655.74 116.553 653.519 115.375 652.731 116.425C651.943 117.476 641.965 119.051 641.965 119.839C641.965 120.627 639.864 141.897 640.389 143.735C640.914 145.573 639.339 147.674 639.339 147.674L637.5 155.552C637.5 155.552 632.511 170.519 634.612 171.045C636.713 171.57 638.551 171.045 639.339 171.045C640.126 171.045 639.864 161.066 641.965 158.44C644.065 155.814 646.954 149.249 647.479 147.936C648.004 146.623 654.569 128.505 654.306 126.404C654.044 124.303 655.74 116.553 655.74 116.553Z" fill="#B8CFFF"/>
<path d="M666.648 117.738C666.648 117.738 668.749 117.738 669.011 118.263C669.274 118.789 671.9 122.202 672.95 122.99C674 123.778 677.677 127.192 677.677 127.979C677.677 128.767 670.062 134.544 670.062 134.544C670.062 134.544 666.91 150.037 668.486 155.289C670.062 160.541 672.425 173.145 671.375 173.933C670.324 174.721 667.961 174.984 667.961 173.933C667.961 172.883 666.385 161.591 665.072 159.228C663.759 156.865 659.82 141.897 661.396 137.695C662.972 133.494 666.648 117.738 666.648 117.738Z" fill="#B8CFFF"/>
<path d="M631.985 143.735C631.985 143.735 631.723 151.875 634.611 156.077C637.5 160.278 639.338 165.005 639.338 165.005C639.338 165.005 644.065 163.692 644.852 162.116C645.64 160.541 650.629 161.854 650.629 161.329C650.629 160.803 644.59 158.178 644.065 157.652C643.539 157.127 641.701 157.127 640.651 156.077C639.6 155.026 639.338 152.663 639.338 152.663L638.287 145.836L631.985 143.735Z" fill="#E29898"/>
<path d="M653.852 101.104C653.185 101.043 652.498 100.976 651.909 100.659C650.589 99.9468 650.238 97.9193 651.243 96.8059C651.521 96.5226 651.83 96.2734 652.167 96.0636L654.163 94.705C655.046 94.1041 655.949 93.4933 656.979 93.2101C657.91 92.9539 658.894 92.9802 659.858 93.0401C661.729 93.1564 663.612 93.3967 665.372 94.0428C667.133 94.689 668.775 95.7699 669.841 97.3125C671.531 99.7578 671.554 103.056 670.623 105.879C669.692 108.702 667.924 111.16 666.182 113.569L665.278 109.158C665.197 108.765 665.093 108.334 664.767 108.102C663.954 107.524 662.961 108.71 661.964 108.703C661.324 108.698 660.786 108.171 660.544 107.578C660.301 106.986 660.285 106.329 660.229 105.691C660.11 104.34 659.637 102.46 658.358 101.715C657.165 101.02 655.192 101.225 653.852 101.104Z" fill="#2F2E41"/>
<path opacity="0.1" d="M654.338 173.62C654.338 173.62 655.225 199.273 655.75 200.061C656.276 200.849 655.75 173.539 655.75 173.539L654.338 173.62Z" fill="black"/>
<path d="M644.065 119.839H641.964C641.964 119.839 633.036 131.918 634.086 132.706C635.137 133.494 634.086 135.595 634.086 135.595L631.986 139.533C631.986 139.533 629.36 141.897 630.147 142.422C630.935 142.947 631.986 145.048 631.986 145.048C631.986 145.048 637.237 144.26 638.813 147.411L642.219 143.112L644.065 119.839Z" fill="#B8CFFF"/>
<path d="M667.961 142.422C667.961 142.422 662.184 142.685 655.619 138.483L649.054 135.595C649.054 135.595 643.277 126.666 642.752 128.242C642.226 129.817 643.539 132.969 643.539 132.969C643.539 132.969 635.617 136.635 635.411 137.12C635.205 137.604 639.863 136.382 639.863 136.382C639.863 136.382 639.075 141.372 643.539 141.634C648.004 141.897 649.317 140.846 649.317 140.846C649.317 140.846 668.223 156.602 671.374 151.613C674.525 146.623 667.961 142.422 667.961 142.422Z" fill="#E29898"/>
<path d="M674.788 126.929L677.677 127.979V135.857L678.727 137.433C678.727 137.433 678.465 140.584 677.677 141.372C676.889 142.159 675.314 141.897 675.839 143.735C676.154 144.933 676.243 146.18 676.101 147.411C676.101 147.411 671.375 153.451 671.112 152.663C670.849 151.875 667.173 142.159 666.648 142.159C666.123 142.159 671.9 126.929 671.9 126.929H674.788Z" fill="#B8CFFF"/>
<path d="M640.257 166.712C640.257 166.712 637.542 164.086 638.9 163.955C640.257 163.823 644.984 161.197 645.772 162.51C646.559 163.823 640.257 166.712 640.257 166.712Z" fill="#2F2E41"/>
<g opacity="0.5">
<circle cx="60" cy="163" r="25.5" fill="#446FC8" stroke="white"/>
<path d="M54.5808 168.155L54.9272 168.488L55.2737 168.155L69.9095 154.09C70.2086 153.803 70.6183 153.638 71.0496 153.638C71.4808 153.638 71.8906 153.803 72.1897 154.09C72.3376 154.232 72.4538 154.4 72.5327 154.583C72.6116 154.766 72.6519 154.962 72.6519 155.159C72.6518 155.355 72.6114 155.551 72.5324 155.734C72.4534 155.917 72.3371 156.085 72.1891 156.227L55.7056 172.05C55.4999 172.248 55.2168 172.362 54.9177 172.362C54.6186 172.362 54.3355 172.248 54.1299 172.05L46.1484 164.38C46.0004 164.238 45.8842 164.07 45.8053 163.887C45.7264 163.704 45.686 163.509 45.686 163.312C45.686 163.115 45.7264 162.919 45.8053 162.736C45.8842 162.553 46.0004 162.385 46.1484 162.243C46.4476 161.956 46.8575 161.791 47.2889 161.791C47.7202 161.791 48.1301 161.956 48.4293 162.243L54.5808 168.155Z" fill="white" stroke="white"/>
</g>
<defs>
<filter id="filter0_d" x="0" y="74" width="720" height="183" filterUnits="userSpaceOnUse" color-interpolation-filters="sRGB">
<feFlood flood-opacity="0" result="BackgroundImageFix"/>
<feColorMatrix in="SourceAlpha" type="matrix" values="0 0 0 0 0 0 0 0 0 0 0 0 0 0 0 0 0 0 127 0"/>
<feOffset dx="-2" dy="2"/>
<feGaussianBlur stdDeviation="4"/>
<feColorMatrix type="matrix" values="0 0 0 0 0 0 0 0 0 0 0 0 0 0 0 0 0 0 0.25 0"/>
<feBlend mode="normal" in2="BackgroundImageFix" result="effect1_dropShadow"/>
<feBlend mode="normal" in="SourceGraphic" in2="effect1_dropShadow" result="shape"/>
</filter>
<linearGradient id="paint0_linear" x1="44" y1="-7.33822" x2="598.524" y2="489.998" gradientUnits="userSpaceOnUse">
<stop offset="0.184032" stop-color="#275DC8"/>
<stop offset="1" stop-color="#00308F"/>
</linearGradient>
<linearGradient id="paint1_linear" x1="31" y1="-25.2206" x2="599.592" y2="491.716" gradientUnits="userSpaceOnUse">
<stop offset="0.184032" stop-color="#275DC8"/>
<stop offset="1" stop-color="#00308F"/>
</linearGradient>
<linearGradient id="paint2_linear" x1="22" y1="-43.1029" x2="604.553" y2="493.355" gradientUnits="userSpaceOnUse">
<stop offset="0.184032" stop-color="#275DC8"/>
<stop offset="1" stop-color="#00308F"/>
</linearGradient>
<linearGradient id="paint3_linear" x1="10" y1="-40.3383" x2="1014.71" y2="676.753" gradientUnits="userSpaceOnUse">
<stop offset="0.184032" stop-color="#275DC8"/>
<stop offset="1" stop-color="#00308F"/>
</linearGradient>
</defs>
</svg>
