<svg width="20" height="15" viewBox="0 0 20 15" fill="none" xmlns="http://www.w3.org/2000/svg">
<mask id="path-1-inside-1" fill="white">
<path fill-rule="evenodd" clip-rule="evenodd" d="M3 0C1.34315 0 0 1.34314 0 3V11.1872C0 12.844 1.34315 14.1872 3 14.1872H13.399L20 7.0936L13.399 0H3Z"/>
</mask>
<path d="M13.399 14.1872V15.1872H13.8345L14.1311 14.8684L13.399 14.1872ZM20 7.0936L20.7321 7.77483L21.366 7.0936L20.7321 6.41237L20 7.0936ZM13.399 0L14.1311 -0.681231L13.8345 -1H13.399V0ZM1 3C1 1.89543 1.89543 1 3 1V-1C0.790861 -1 -1 0.790859 -1 3H1ZM1 11.1872V3H-1V11.1872H1ZM3 13.1872C1.89543 13.1872 1 12.2918 1 11.1872H-1C-1 13.3963 0.79086 15.1872 3 15.1872V13.1872ZM13.399 13.1872H3V15.1872H13.399V13.1872ZM19.2679 6.41237L12.6669 13.506L14.1311 14.8684L20.7321 7.77483L19.2679 6.41237ZM12.6669 0.681231L19.2679 7.77483L20.7321 6.41237L14.1311 -0.681231L12.6669 0.681231ZM3 1H13.399V-1H3V1Z" fill="#28E6E1" mask="url(#path-1-inside-1)"/>
</svg>
