<svg width="24" height="24" viewBox="0 0 24 24" fill="none" xmlns="http://www.w3.org/2000/svg">
<mask id="path-2-inside-1" fill="white">
<path fill-rule="evenodd" clip-rule="evenodd" d="M5 5C3.34315 5 2 6.34314 2 8V16.1872C2 17.844 3.34315 19.1872 5 19.1872H15.399L22 12.0936L15.399 5H5Z"/>
</mask>
<path d="M15.399 19.1872V20.1872H15.8345L16.1311 19.8684L15.399 19.1872ZM22 12.0936L22.7321 12.7748L23.366 12.0936L22.7321 11.4124L22 12.0936ZM15.399 5L16.1311 4.31877L15.8345 4H15.399V5ZM3 8C3 6.89543 3.89543 6 5 6V4C2.79086 4 1 5.79086 1 8H3ZM3 16.1872V8H1V16.1872H3ZM5 18.1872C3.89543 18.1872 3 17.2918 3 16.1872H1C1 18.3963 2.79086 20.1872 5 20.1872V18.1872ZM15.399 18.1872H5V20.1872H15.399V18.1872ZM21.2679 11.4124L14.6669 18.506L16.1311 19.8684L22.7321 12.7748L21.2679 11.4124ZM14.6669 5.68123L21.2679 12.7748L22.7321 11.4124L16.1311 4.31877L14.6669 5.68123ZM5 6H15.399V4H5V6Z" fill="#00308F" mask="url(#path-2-inside-1)"/>
</svg>
