<svg width="24" height="24" viewBox="0 0 24 24" fill="none" xmlns="http://www.w3.org/2000/svg">
<path fill-rule="evenodd" clip-rule="evenodd" d="M8.65896 8.94464C9.40184 8.20177 9.40184 6.99507 8.65896 6.25125L6.63797 4.23121C5.89415 3.48738 4.68841 3.48738 3.94458 4.23121L2.83599 5.3398C1.87502 6.30077 1.72549 7.79985 2.47598 8.93416C5.69605 13.8019 9.98947 18.0953 14.8572 21.3154C15.9886 22.063 17.4915 21.9144 18.4515 20.9544L19.5601 19.8458C20.304 19.1029 20.304 17.8962 19.5601 17.1524L17.5401 15.1324C16.7963 14.3886 15.5896 14.3886 14.8458 15.1324L14.1724 15.8057C11.9562 13.9905 9.80089 11.8342 7.98467 9.61798L8.65896 8.94464Z" stroke="#00308F" stroke-linecap="round" stroke-linejoin="round"/>
<path d="M21.0476 8.4563V3L18.0609 6.63531H22" stroke="#00308F" stroke-linecap="round" stroke-linejoin="round"/>
<path d="M13.335 4.30445C13.3655 3.57872 13.9645 3.00061 14.7007 3.00061C15.4541 3.00061 16.0674 3.60919 16.0674 4.36254C16.0674 4.75112 15.9103 5.00541 15.8036 5.16161L13.3178 8.45596H16.0512" stroke="#00308F" stroke-linecap="round" stroke-linejoin="round"/>
</svg>
