<svg width="114" height="37" viewBox="0 0 114 37" fill="none" xmlns="http://www.w3.org/2000/svg">
<path d="M7.55765 0.644409H9.46157L16.6965 19.0393L14.8804 19.4494L12.5079 13.2689H4.45279L2.16809 19.2443H0.26416L7.55765 0.644409ZM5.0972 11.6286H11.8927L8.49497 2.78268L5.0972 11.6286Z" fill="white"/>
<path d="M24.4293 19.42C22.6718 19.42 21.2365 19.0685 19.8306 18.5999V0.322196L21.588 0V8.23081C22.4961 7.23491 23.7263 6.2976 25.513 6.2976C28.2664 6.2976 30.6097 8.31867 30.6097 12.5366C30.5804 17.1939 27.9442 19.42 24.4293 19.42ZM25.308 7.87931C23.8727 7.87931 22.7011 8.75806 21.588 10.0762V17.3696C22.3789 17.6918 23.2283 17.8676 24.5172 17.8676C27.0362 17.8676 28.7937 16.2273 28.7937 12.6245C28.7937 9.54891 27.3291 7.87931 25.308 7.87931Z" fill="white"/>
<path d="M35.0325 3.54417C34.3295 3.54417 33.7437 2.95834 33.7437 2.25535C33.7437 1.55237 34.3295 0.966553 35.0325 0.966553C35.7354 0.966553 36.292 1.55237 36.292 2.25535C36.292 2.95834 35.7354 3.54417 35.0325 3.54417ZM34.1537 19.2442V6.56116H35.8819V19.2442H34.1537Z" fill="white"/>
<path d="M40.4224 19.2443V0.322196L42.1505 0V19.2443H40.4224Z" fill="white"/>
<path d="M47.5696 3.54417C46.8666 3.54417 46.2808 2.95834 46.2808 2.25535C46.2808 1.55237 46.8666 0.966553 47.5696 0.966553C48.2726 0.966553 48.8291 1.55237 48.8291 2.25535C48.8291 2.95834 48.2726 3.54417 47.5696 3.54417ZM46.6908 19.2442V6.56116H48.419V19.2442H46.6908Z" fill="white"/>
<path d="M56.708 19.4493C54.7162 19.4493 53.3981 18.6585 53.3981 16.3445V8.05508H51.4355V6.56122H53.3981V2.16755L55.1262 1.87463V6.56122H58.0554L58.2897 8.05508H55.1262V16.0515C55.1262 17.3404 55.6242 17.8969 57.0009 17.8969C57.4109 17.8969 57.8796 17.809 58.1725 17.7504L58.4361 19.215C58.0846 19.3615 57.4402 19.4493 56.708 19.4493Z" fill="white"/>
<path d="M62.9767 4.13001C61.8929 4.13001 61.0435 3.36844 61.0435 2.31395C61.0435 1.20089 61.8929 0.439331 62.9767 0.439331C64.0311 0.439331 64.8806 1.23018 64.8806 2.31395C64.8806 3.36844 64.0019 4.13001 62.9767 4.13001ZM61.3364 19.2442V6.29756H64.5584V19.2442H61.3364Z" fill="white"/>
<path d="M76.304 19.5664C70.9437 19.5664 67.5752 15.7879 67.5752 10.0175C67.5752 4.27646 71.0316 0.410034 76.4211 0.410034C78.5008 0.410034 80.1118 0.878703 81.4885 1.75744L80.9905 5.09662C79.7896 4.18859 78.3543 3.45632 76.5676 3.45632C73.2284 3.45632 71.2073 5.97536 71.2073 9.95896C71.2073 13.9719 73.287 16.4323 76.6262 16.4323C78.3543 16.4323 79.9068 15.7879 81.3127 14.8213L81.7814 17.9261C80.3168 18.922 78.4129 19.5664 76.304 19.5664Z" fill="white"/>
<path d="M90.1 19.2443H84.7983V0.7323H90.1879C94.3473 0.7323 96.3391 2.60692 96.3391 5.53604C96.3391 7.46926 95.2553 8.72878 93.6443 9.40248C95.6946 10.0469 97.0713 11.3943 97.0713 13.8547C97.0713 17.5161 94.4351 19.2443 90.1 19.2443ZM89.9829 3.45637H88.1961V8.348H89.8364C91.9161 8.348 93.0291 7.41067 93.0291 5.82895C93.0291 4.36439 92.1504 3.45637 89.9829 3.45637ZM90.0415 10.8963H88.1961V16.5495H90.1C92.3555 16.5495 93.6736 15.6122 93.6736 13.7669C93.6736 11.8629 92.414 10.8963 90.0415 10.8963Z" fill="white"/>
<path d="M107.587 3.83717V19.2443H104.043V3.83717H98.4775V0.761597H112.86L113.357 3.83717H107.587Z" fill="white"/>
<path d="M5.56532 31.4588C5.56532 33.1284 4.45225 34.2121 2.9584 34.2121C2.19683 34.2121 1.61101 33.9192 1.20093 33.4213H1.17165V34.1536H0V26.0692H1.23023V29.4377H1.25952C1.66959 28.969 2.25541 28.7054 2.9584 28.7054C4.45225 28.6761 5.56532 29.8478 5.56532 31.4588ZM4.3058 31.4881C4.3058 30.4629 3.63211 29.8185 2.75338 29.8185C1.84535 29.8185 1.20093 30.5508 1.20093 31.4881C1.20093 32.4547 1.90393 33.0991 2.75338 33.0991C3.6614 33.0991 4.3058 32.4254 4.3058 31.4881Z" fill="white"/>
<path d="M11.3065 28.764L8.34815 36.2919H7.05933L8.02595 33.8314L5.8584 28.764H7.14722L8.64106 32.3669L10.0177 28.764H11.3065Z" fill="white"/>
<path d="M23.2573 26.3329V34.1243H21.9392V28.8812H21.9099L19.7716 32.6012H18.8929L16.7546 28.8812H16.7253V34.1243H15.4072V26.3329H16.7253L19.303 30.9902H19.3322L21.9099 26.3329H23.2573Z" fill="white"/>
<path d="M24.6924 31.4588C24.6924 29.8771 25.8055 28.7054 27.5043 28.7054C29.1446 28.7054 30.3163 29.8185 30.3163 31.4588C30.3163 33.0991 29.1446 34.2122 27.5043 34.2122C25.8055 34.2122 24.6924 33.0113 24.6924 31.4588ZM27.5043 33.0991C28.3831 33.0991 29.0568 32.4254 29.0568 31.4588C29.0568 30.4629 28.3831 29.8185 27.5043 29.8185C26.567 29.8185 25.9519 30.5508 25.9519 31.4588C25.9226 32.3668 26.567 33.0991 27.5043 33.0991Z" fill="white"/>
<path d="M34.6513 28.7054V30.0821C34.5048 30.0821 34.3583 30.0528 34.2705 30.0528C33.3332 30.0528 32.8059 30.7265 32.8059 31.6053V34.1536H31.5757V28.7933H32.8059V29.5842H32.8352C33.2453 29.0276 33.8604 28.7054 34.5048 28.7054C34.5634 28.6761 34.622 28.6761 34.6513 28.7054Z" fill="white"/>
<path d="M38.7226 28.6761C39.8942 28.6761 40.6851 29.3498 40.6851 30.9608V34.1243H39.4548V31.283C39.4548 30.1407 39.0448 29.7892 38.2832 29.7892C37.463 29.7892 36.9065 30.375 36.9065 31.4295V34.1243H35.6763V28.764H36.9065V29.4963H36.9358C37.3752 28.969 38.0196 28.6761 38.7226 28.6761Z" fill="white"/>
<path d="M47.0713 31.8689H43.1755C43.322 32.6304 43.9078 33.0991 44.6987 33.0991C45.3138 33.0991 45.7532 32.8062 46.0461 32.4547L46.8955 33.187C46.4268 33.7728 45.6946 34.2122 44.6401 34.2122C43.0877 34.2122 41.8867 33.1284 41.8867 31.4588C41.8867 29.8185 42.9998 28.7054 44.4936 28.7054C46.0754 28.7054 47.1005 29.8478 47.1005 31.4002C47.1005 31.576 47.0713 31.781 47.0713 31.8689ZM43.1755 30.873H45.8703C45.7239 30.2286 45.2552 29.7892 44.5522 29.7892C43.8785 29.7892 43.3513 30.17 43.1755 30.873Z" fill="white"/>
<path d="M53.5443 28.764V34.1243H52.3727V33.392H52.3434C51.9626 33.9193 51.3768 34.1829 50.6445 34.1829C49.1507 34.1829 48.0376 33.0991 48.0376 31.4295C48.0376 29.8185 49.1507 28.6469 50.6152 28.6469C51.2889 28.6469 51.8747 28.8812 52.2848 29.3791H52.3141V28.7347H53.5443V28.764ZM52.3434 31.4881C52.3434 30.5508 51.699 29.8185 50.8203 29.8185C49.9708 29.8185 49.2678 30.4629 49.2678 31.4881C49.2678 32.4254 49.9122 33.0991 50.8203 33.0991C51.6697 33.0991 52.3434 32.4547 52.3434 31.4881Z" fill="white"/>
<path d="M59.8711 28.764V34.1243H58.6409V33.4213H58.6116C58.1722 33.9486 57.5864 34.2122 56.9713 34.2122C55.7996 34.2122 54.9795 33.6264 54.9795 32.0153V28.764H56.2097V31.6932C56.2097 32.7769 56.5319 33.0991 57.2642 33.0991C57.9965 33.0991 58.6409 32.484 58.6409 31.3417V28.764H59.8711Z" fill="white"/>
<path d="M66.8422 34.2122C65.8463 34.2122 64.8211 33.8314 64.001 32.9819L64.8504 31.9568C65.407 32.6305 66.1978 32.9819 66.8422 32.9819C67.6917 32.9819 68.131 32.6011 68.131 32.0153C68.131 31.3416 67.6038 31.1073 66.6372 30.7851C65.4655 30.375 64.2939 29.8478 64.2939 28.4125C64.2939 27.1823 65.407 26.245 66.7544 26.2157C67.6917 26.2157 68.5411 26.5672 69.332 27.1823L68.5411 28.2368C67.8967 27.7096 67.2816 27.4459 66.7544 27.4459C66.1392 27.4459 65.6706 27.7681 65.6706 28.3539C65.6706 28.9105 66.1978 29.1155 67.1351 29.4963C68.4825 30.0235 69.537 30.375 69.537 31.8982C69.537 33.4799 68.1017 34.2122 66.8422 34.2122Z" fill="white"/>
<path d="M75.9223 30.9315V34.1536H74.6921V31.2537C74.6921 30.1993 74.282 29.8185 73.5205 29.8185C72.6417 29.8185 72.0852 30.375 72.0852 31.4295V34.1536H70.855V26.0692H72.0852V29.467H72.1145C72.5539 28.969 73.2276 28.7054 73.9306 28.7054C75.1022 28.6761 75.9223 29.3205 75.9223 30.9315Z" fill="white"/>
<path d="M82.3081 31.8689H78.4124C78.5588 32.6304 79.1446 33.0991 79.9355 33.0991C80.5506 33.0991 80.99 32.8062 81.2829 32.4547L82.1323 33.187C81.6637 33.7728 80.9314 34.2122 79.8769 34.2122C78.3245 34.2122 77.1235 33.1284 77.1235 31.4588C77.1235 29.8185 78.2366 28.7054 79.7305 28.7054C81.3122 28.7054 82.3374 29.8478 82.3374 31.4002C82.3374 31.576 82.3081 31.781 82.3081 31.8689ZM78.4124 30.873H81.1071C80.9607 30.2286 80.492 29.7892 79.789 29.7892C79.1153 29.7892 78.5881 30.17 78.4124 30.873Z" fill="white"/>
<path d="M89.1332 31.4587C89.1332 33.1283 88.0201 34.2121 86.5263 34.2121C85.794 34.2121 85.2375 33.9485 84.8274 33.4798H84.7981V36.3211H83.5679V28.7932H84.7981V29.4377H84.8274C85.2375 28.969 85.8233 28.7054 86.5263 28.7054C88.0201 28.6761 89.1332 29.8477 89.1332 31.4587ZM87.8737 31.488C87.8737 30.4628 87.2 29.8184 86.3212 29.8184C85.4132 29.8184 84.7688 30.5507 84.7688 31.488C84.7688 32.4546 85.4718 33.099 86.3212 33.099C87.2585 33.099 87.8737 32.4253 87.8737 31.488Z" fill="white"/>
<path d="M95.2837 31.8689H91.3879C91.5344 32.6304 92.1202 33.0991 92.9111 33.0991C93.5262 33.0991 93.9656 32.8062 94.2585 32.4547L95.1079 33.187C94.6392 33.7728 93.907 34.2122 92.8525 34.2122C91.3001 34.2122 90.0991 33.1284 90.0991 31.4588C90.0991 29.8185 91.2122 28.7054 92.706 28.7054C94.2878 28.7054 95.313 29.8478 95.313 31.4002C95.313 31.576 95.2837 31.781 95.2837 31.8689ZM91.3879 30.873H94.0827C93.9363 30.2286 93.4676 29.7892 92.7646 29.7892C92.0909 29.7892 91.5637 30.17 91.3879 30.873Z" fill="white"/>
<path d="M96.6606 26.0399H97.8909V34.1243H96.6606V26.0399Z" fill="white"/>
<path d="M99.6484 26.0399H100.879V34.1243H99.6484V26.0399Z" fill="white"/>
</svg>
